# xmcd CD database file
#
# Track frame offsets:
#	150
#	31024
#	77713
#	102288
#	131466
#	150970
#	171521
#	196371
#	220811
#	243364
#	260291
#	287956
#	304885
#	320735
#
# Disc length: 4513 seconds
#
# Revision: 0
# Processed by: cddbd v1.5.2PL0 Copyright (c) Steve Scherf et al.
# Submitted via: CDex 1.51
#
DISCID=bf119f0e
DTITLE=Hector Lavoe - Greatest Hits
DYEAR=1900
DGENRE=Salsa
TTITLE0=Periodico de ayer
TTITLE1=El Cantante
TTITLE2=Mi gente
TTITLE3=Rompe Saraguaz
TTITLE4=El Todopoderoso
TTITLE5=De ti depende
TTITLE6=Hacha y Machete
TTITLE7=El dia de tu suerte
TTITLE8=Todo tiene su final
TTITLE9=Calle Luna Calle Sol
TTITLE10=Aguanile
TTITLE11=Ah-Ah/O-No
TTITLE12=Che Che Cole
TTITLE13=El Malo
EXTD=
EXTT0=
EXTT1=
EXTT2=
EXTT3=
EXTT4=
EXTT5=
EXTT6=
EXTT7=
EXTT8=
EXTT9=
EXTT10=
EXTT11=
EXTT12=
EXTT13=
PLAYORDER=
